<svg xmlns="http://www.w3.org/2000/svg" id="avatar_1_" data-name="avatar (1)" viewBox="0 0 43.698 51.374">
    <defs>
        <style>
            .cls-1{fill:#633280}
        </style>
    </defs>
    <g id="Group_55" data-name="Group 55">
        <path id="Path_18" d="M148 27.681h.34a9.817 9.817 0 0 0 7.5-3.245c4.1-4.617 3.415-12.532 3.34-13.288-.266-5.67-2.947-8.383-5.16-9.649A11.828 11.828 0 0 0 148.3 0h-.181a11.847 11.847 0 0 0-5.724 1.457c-2.234 1.266-4.958 3.979-5.224 9.692-.074.755-.755 8.67 3.34 13.288A9.777 9.777 0 0 0 148 27.681zm-7.99-16.266c0-.032.011-.064.011-.085.351-7.628 5.766-8.447 8.085-8.447h.128c2.872.064 7.755 1.234 8.085 8.447a.207.207 0 0 0 .011.085c.011.074.755 7.309-2.628 11.117a6.973 6.973 0 0 1-5.479 2.277h-.106a6.95 6.95 0 0 1-5.468-2.277c-3.374-3.787-2.649-11.053-2.64-11.117z" class="cls-1" data-name="Path 18" transform="translate(-126.336)"/>
        <path id="Path_19" d="M79.768 272.474v-.032c0-.085-.011-.17-.011-.266-.064-2.106-.2-7.032-4.819-8.607-.032-.011-.074-.021-.106-.032A30.7 30.7 0 0 1 66 259.516a1.436 1.436 0 0 0-1.649 2.351 33.136 33.136 0 0 0 9.713 4.436c2.479.883 2.755 3.532 2.83 5.958a2.134 2.134 0 0 0 .011.266 19.308 19.308 0 0 1-.223 3.287c-1.723.979-8.479 4.362-18.756 4.362a39.378 39.378 0 0 1-18.765-4.376 18.281 18.281 0 0 1-.223-3.287c0-.085.011-.17.011-.266.074-2.426.351-5.075 2.83-5.958a33.445 33.445 0 0 0 9.713-4.436 1.436 1.436 0 0 0-1.649-2.351 30.357 30.357 0 0 1-8.83 4.021 1.28 1.28 0 0 0-.106.032c-4.617 1.585-4.755 6.511-4.819 8.607a2.137 2.137 0 0 1-.011.266v.032a16.314 16.314 0 0 0 .543 4.819 1.365 1.365 0 0 0 .553.67c.319.213 7.968 5.085 20.766 5.085s20.447-4.883 20.766-5.085a1.423 1.423 0 0 0 .553-.67 17.116 17.116 0 0 0 .51-4.805z" class="cls-1" data-name="Path 19" transform="translate(-36.073 -231.664)"/>
    </g>
</svg>
